<svg width="57" height="57" viewBox="0 0 57 57" fill="none" xmlns="http://www.w3.org/2000/svg">
<g filter="url(#filter0_d_1_133)">
<g clip-path="url(#clip0_1_133)">
<rect x="3.702" y="40.0157" width="38.5747" height="38.5747" rx="19.2874" transform="rotate(-70.2857 3.702 40.0157)" fill="white"/>
<circle cx="28.663" cy="28.1584" r="16" fill="#FF4D00"/>
<path d="M29.336 19.9032C29.025 20.5453 29.1026 21.3055 29.4212 21.6397C29.7398 21.9739 30.5032 21.7325 30.8144 21.0904C31.1255 20.4483 30.9873 19.5303 30.6687 19.1962C30.1129 18.6131 29.4369 19.6951 29.336 19.9032ZM28.3389 21.5554C27.5502 21.9064 26.8935 22.3725 26.3781 22.9647C25.6608 23.7888 25.1995 24.8419 24.9882 26.2615C24.9684 26.3946 24.9947 26.549 25.1412 26.8035C25.2877 27.0579 25.5425 27.3507 25.8457 27.6256C26.4522 28.1752 27.2426 28.6653 27.7833 29.001L28.0576 29.1714L27.9999 29.606C27.7974 31.1311 27.3568 31.9719 26.8361 32.4482C26.4894 32.7652 26.1391 32.9467 25.7965 33.1597L26.578 34.0377C27.52 33.386 29.0389 32.2257 29.5974 29.1448C29.5241 28.7827 29.3778 28.4417 29.1706 28.0942C28.967 27.7528 28.7123 27.4125 28.4542 27.0513L27.7255 26.0312L28.7235 26.1159C30.4935 26.2662 30.9055 26.3028 32.2848 25.4127C32.4239 25.1893 32.4238 25.0916 32.4066 24.9293C32.3954 24.8233 32.3544 24.6741 32.3051 24.5037C31.8284 24.5904 31.2664 24.7161 30.678 24.7906C29.9854 24.8783 29.2846 24.897 28.6879 24.5957L28.3508 24.4254C28.4541 23.7879 28.6575 23.2381 28.9449 22.743C28.9317 22.7301 28.9186 22.7168 28.9057 22.7033C28.6263 22.4102 28.4377 22.0063 28.3389 21.5554ZM32.7748 23.1654C32.8658 23.4997 32.9598 23.8479 33.036 24.2067C33.1386 24.6906 33.2065 25.2161 33.1005 25.7506C33.058 25.9653 32.9773 26.1639 32.8766 26.3498C33.9243 26.8994 34.759 27.6413 35.4238 28.3777C35.3549 27.5955 35.0662 26.7204 34.5939 25.8161C34.1188 24.9065 33.4742 23.9977 32.7748 23.1654ZM19.3502 25.4805C19.7616 26.4404 20.1575 27.3161 20.7877 28.0073C21.4255 28.7068 22.3279 29.2585 23.7798 29.4989L22.7176 31.0362C22.3518 30.6403 21.9009 30.4073 21.412 30.4073C20.1818 30.4073 19.1923 31.8825 19.1923 33.7165C19.1923 35.5504 20.1818 37.0256 21.412 37.0256C22.6423 37.0256 23.6317 35.5504 23.6317 33.7165C23.6317 33.0041 23.4825 32.3458 23.2278 31.8071L23.8563 30.8977C23.995 31.4882 24.2282 32.1723 24.6068 32.8667L24.9191 32.5924C25.3836 32.1844 25.8137 31.9791 26.1593 31.7513L24.1943 30.4083L24.779 29.5622H24.7791C25.1225 29.3168 25.4682 29.0787 25.816 28.8477C24.3414 27.6591 23.8698 26.7854 23.5464 26.1679C22.0053 26.485 20.6947 25.9836 19.3502 25.4805ZM32.1036 27.0982C31.5303 27.09 30.7394 27.3348 29.8952 27.7017C30.0909 28.0833 30.2531 28.5151 30.3306 29.0195C30.3555 29.1137 30.3446 29.1788 30.3289 29.2722C30.09 30.6903 29.6584 31.7757 29.1629 32.6126L31.6375 34.304C31.567 32.9795 31.8442 31.8664 32.3733 31.0447L33.0873 31.9635C32.8752 32.4711 32.7528 33.0717 32.7528 33.7165C32.7528 35.5504 33.7423 37.0256 34.9726 37.0256C36.2028 37.0256 37.1923 35.5504 37.1923 33.7165C37.1923 31.8825 36.2028 30.4073 34.9726 30.4073C34.4383 30.4073 33.9494 30.6855 33.5673 31.1506L32.9429 30.3471C33.5119 29.7859 34.2158 29.4055 34.9892 29.133C34.8257 28.9228 34.6391 28.6935 34.4111 28.4517C33.765 27.7664 32.9069 27.1095 32.1036 27.0982ZM26.6739 29.4692C26.3154 29.6987 25.9592 29.9362 25.6054 30.1813L26.8488 31.0311C26.9981 30.7595 27.1223 30.3873 27.2219 29.8197C27.0508 29.7129 26.8658 29.5963 26.6739 29.4692ZM21.4121 31.7911C21.6289 31.7912 21.8422 31.8726 22.0324 32.0278L21.0904 33.391L21.5965 34.1679L22.5457 32.7942C22.6493 33.0771 22.7035 33.3942 22.7035 33.7165C22.7035 34.7798 22.1253 35.6418 21.4121 35.6418C20.6988 35.6418 20.1206 34.7798 20.1206 33.7165C20.1206 32.6531 20.6988 31.7911 21.4121 31.7911ZM34.9726 31.7911C35.6858 31.7911 36.264 32.6531 36.264 33.7165C36.264 34.7798 35.6858 35.6418 34.9726 35.6418C34.2593 35.6418 33.6811 34.7798 33.6811 33.7165C33.6811 33.4302 33.7239 33.1475 33.8064 32.889L34.8416 34.2213L35.3163 33.4015L34.2906 32.0814C34.4953 31.8917 34.7315 31.7911 34.9726 31.7911L34.9726 31.7911ZM28.6079 33.4248C28.3343 33.7733 28.0559 34.0626 27.7908 34.3045L30.8476 34.9555L28.6079 33.4248Z" fill="white"/>
</g>
</g>
<defs>
<filter id="filter0_d_1_133" x="-5.37045" y="-5.37045" width="67.471" height="67.471" filterUnits="userSpaceOnUse" color-interpolation-filters="sRGB">
<feFlood flood-opacity="0" result="BackgroundImageFix"/>
<feColorMatrix in="SourceAlpha" type="matrix" values="0 0 0 0 0 0 0 0 0 0 0 0 0 0 0 0 0 0 127 0" result="hardAlpha"/>
<feMorphology radius="9.07244" operator="dilate" in="SourceAlpha" result="effect1_dropShadow_1_133"/>
<feOffset/>
<feComposite in2="hardAlpha" operator="out"/>
<feColorMatrix type="matrix" values="0 0 0 0 1 0 0 0 0 0.3 0 0 0 0 0 0 0 0 0.3 0"/>
<feBlend mode="normal" in2="BackgroundImageFix" result="effect1_dropShadow_1_133"/>
<feBlend mode="normal" in="SourceGraphic" in2="effect1_dropShadow_1_133" result="shape"/>
</filter>
<clipPath id="clip0_1_133">
<rect x="3.702" y="40.0157" width="38.5747" height="38.5747" rx="19.2874" transform="rotate(-70.2857 3.702 40.0157)" fill="white"/>
</clipPath>
</defs>
</svg>
